<svg xmlns="http://www.w3.org/2000/svg" version="1.1" xmlns:xlink="http://www.w3.org/1999/xlink" width="512" height="512" x="0" y="0" viewBox="0 0 682.667 682.667" style="enable-background:new 0 0 512 512" xml:space="preserve" class=""><g><defs><clipPath id="a" clipPathUnits="userSpaceOnUse"><path d="M0 512h512V0H0Z" fill="#000000" opacity="1" data-original="#000000"></path></clipPath></defs><g clip-path="url(#a)" transform="matrix(1.33333 0 0 -1.33333 0 682.667)"><path d="M0 0v2.375c0 30.922 20.018 57.393 47.733 67.102m46.822-.058c27.631-9.755 47.57-36.183 47.57-67.044v-94.75c0-13.027-10.66-23.687-23.687-23.687l-11.844-185.856c-1.081-12.982-10.662-23.687-23.688-23.687H59.218c-13.025 0-22.606 10.704-23.687 23.687-3.947 47.374-7.896 138.481-11.844 185.856C10.66-116.062 0-105.403 0-92.375V-90" style="stroke-width:20;stroke-linecap:round;stroke-linejoin:round;stroke-miterlimit:22.926;stroke-dasharray:none;stroke-opacity:1" transform="translate(333.875 335.607)" fill="none" stroke="#000000" stroke-width="20" stroke-linecap="round" stroke-linejoin="round" stroke-miterlimit="22.926" stroke-dasharray="none" stroke-opacity="" data-original="#000000" class=""></path><path d="M0 0v0c22.856 0 41.556-18.7 41.556-41.556v-20.778c0-22.855-18.7-41.556-41.556-41.556v0c-22.856 0-41.556 18.701-41.556 41.556v20.778C-41.556-18.7-22.856 0 0 0Z" style="stroke-width:20;stroke-linecap:round;stroke-linejoin:round;stroke-miterlimit:22.926;stroke-dasharray:none;stroke-opacity:1" transform="translate(404.937 502.001)" fill="none" stroke="#000000" stroke-width="20" stroke-linecap="round" stroke-linejoin="round" stroke-miterlimit="22.926" stroke-dasharray="none" stroke-opacity="" data-original="#000000" class=""></path><path d="M0 0c23.874-8.474 41.091-31.33 41.091-58.013v-73.377c0-11.279-9.229-20.508-20.508-20.508L10.328-295.497c-.936-11.239-9.233-20.508-20.508-20.508h-20.509c-11.276 0-19.573 9.27-20.509 20.508-3.415 41.017-6.837 102.581-10.255 143.599-11.279 0-20.508 9.229-20.508 20.508v73.377c0 26.701 17.239 49.568 41.135 58.029" style="stroke-width:20;stroke-linecap:round;stroke-linejoin:round;stroke-miterlimit:22.926;stroke-dasharray:none;stroke-opacity:1" transform="translate(260.435 326.004)" fill="none" stroke="#000000" stroke-width="20" stroke-linecap="round" stroke-linejoin="round" stroke-miterlimit="22.926" stroke-dasharray="none" stroke-opacity="" data-original="#000000" class=""></path><path d="M0 0v0c19.789 0 35.98-16.191 35.98-35.979v-17.99c0-19.789-16.191-35.98-35.98-35.98v0c-19.788 0-35.979 16.191-35.979 35.98v17.99C-35.979-16.191-19.788 0 0 0Z" style="stroke-width:20;stroke-linecap:round;stroke-linejoin:round;stroke-miterlimit:22.926;stroke-dasharray:none;stroke-opacity:1" transform="translate(239.999 410)" fill="none" stroke="#000000" stroke-width="20" stroke-linecap="round" stroke-linejoin="round" stroke-miterlimit="22.926" stroke-dasharray="none" stroke-opacity="" data-original="#000000" class=""></path><path d="M0 0c21.324-7.584 36.699-28.006 36.699-51.847v-55.594c0-10.082-8.25-18.333-18.333-18.333L9.199-214.14c-.837-10.047-8.256-18.333-18.333-18.333h-18.334c-10.078 0-17.497 8.288-18.333 18.333-3.052 36.665-6.112 51.7-9.167 88.366-10.083 0-18.333 8.25-18.333 18.333v55.594c0 23.853 15.39 44.284 36.731 51.859" style="stroke-width:20;stroke-linecap:round;stroke-linejoin:round;stroke-miterlimit:22.926;stroke-dasharray:none;stroke-opacity:1" transform="translate(109.3 242.472)" fill="none" stroke="#000000" stroke-width="20" stroke-linecap="round" stroke-linejoin="round" stroke-miterlimit="22.926" stroke-dasharray="none" stroke-opacity="" data-original="#000000" class=""></path><path d="M0 0v0c17.69 0 32.163-14.473 32.163-32.163v-16.082C32.163-65.934 17.69-80.407 0-80.407c-17.69 0-32.163 14.473-32.163 32.162v16.082C-32.163-14.473-17.69 0 0 0Z" style="stroke-width:20;stroke-linecap:round;stroke-linejoin:round;stroke-miterlimit:22.926;stroke-dasharray:none;stroke-opacity:1" transform="translate(91 317.57)" fill="none" stroke="#000000" stroke-width="20" stroke-linecap="round" stroke-linejoin="round" stroke-miterlimit="22.926" stroke-dasharray="none" stroke-opacity="" data-original="#000000" class=""></path><path d="M0 0h.007" style="stroke-width:20;stroke-linecap:round;stroke-linejoin:round;stroke-miterlimit:2.613;stroke-dasharray:none;stroke-opacity:1" transform="translate(333.868 290.607)" fill="none" stroke="#000000" stroke-width="20" stroke-linecap="round" stroke-linejoin="round" stroke-miterlimit="2.613" stroke-dasharray="none" stroke-opacity="" data-original="#000000" class=""></path></g></g></svg>