<svg
  xmlns="http://www.w3.org/2000/svg"
  version="1.1"
  xmlns:xlink="http://www.w3.org/1999/xlink"
  width="512"
  height="512"
  x="0"
  y="0"
  viewBox="0 0 32 32"
  style="enable-background: new 0 0 512 512"
  xml:space="preserve"
  class=""
>
  <g>
    <path
      d="M4.3 28.8h23.6c.7 0 1.3-.6 1.3-1.3s-.6-1.3-1.3-1.3H5.6V3.9c0-.7-.6-1.3-1.3-1.3S3 3.2 3 3.9v23.6c0 .7.6 1.3 1.3 1.3z"
      fill="#FFFFFF"
      opacity="1"
      data-original="#FFFFFF"
      class=""
    ></path>
    <path
      d="M9 19.3c.3 0 .7-.1.9-.4l5.6-5.6 3.8 3.8c.5.5 1.3.5 1.8 0l7.7-7.7c.5-.5.5-1.3 0-1.8s-1.3-.5-1.8 0l-6.7 6.7-3.8-3.8c-.5-.5-1.3-.5-1.8 0L8.2 17c-.5.5-.5 1.3 0 1.8.2.4.5.5.8.5z"
      fill="#FFFFFF"
      opacity="1"
      data-original="#FFFFFF"
      class=""
    ></path>
  </g>
</svg>
