<svg
  xmlns="http://www.w3.org/2000/svg"
  version="1.1"
  xmlns:xlink="http://www.w3.org/1999/xlink"
  width="512"
  height="512"
  x="0"
  y="0"
  viewBox="0 0 64 64"
  style="enable-background: new 0 0 512 512"
  xml:space="preserve"
  class=""
>
  <g>
    <path
      d="m57.886 47.009-.001.002a1.092 1.092 0 0 0-.077-.047L52.474 44l5.317-2.956c.019-.009.079-.042.097-.052l.06-.036A8 8 0 1 0 46 34a7.926 7.926 0 0 0 1.548 4.729l-2.28 1.267-10.984-6.103a6.006 6.006 0 0 0-8.159 2.33 1 1 0 0 0 .388 1.36L38.062 44l-11.548 6.417a1 1 0 0 0-.388 1.36 6.004 6.004 0 0 0 8.16 2.33l10.982-6.103 2.28 1.268A7.922 7.922 0 0 0 46.002 54a8 8 0 1 0 11.885-6.991Zm-8.289-7.13a1 1 0 0 0 .213-1.59 5.999 5.999 0 1 1 7.103.954c-.018.01-.036.02-.052.031l-.025.014-6.42 3.568-3.089-1.716Zm-16.283 12.48a4.009 4.009 0 0 1-4.844-.74l11.651-6.475 3.089 1.716ZM54.001 60a5.997 5.997 0 0 1-4.19-10.29 1 1 0 0 0-.214-1.589L28.47 36.381a4.011 4.011 0 0 1 4.843-.74l23.543 13.082.057.034A5.998 5.998 0 0 1 54.001 60ZM40 55v4a3.003 3.003 0 0 1-3 3H5a3.003 3.003 0 0 1-3-3V20.162a3.002 3.002 0 0 1 1.42-2.55c2.436-1.491 8.314-5.777 10.281-13.358A3.021 3.021 0 0 1 17.707 2.2l11.37 4.372A3.018 3.018 0 0 1 31 9.373v8.513c0 5.329 4.415 7.777 7.047 8.762A3.015 3.015 0 0 1 40 29.46v3.621a1 1 0 0 1-2 0v-3.621a.994.994 0 0 0-.653-.938C34.837 27.582 29 24.666 29 17.886V9.373a1.006 1.006 0 0 0-.641-.933L16.992 4.068a1.044 1.044 0 0 0-1.355.688c-2.15 8.287-8.53 12.944-11.174 14.561a.994.994 0 0 0-.463.845V43h1a1 1 0 0 1 0 2H4v14a1 1 0 0 0 1 1h32a1 1 0 0 0 1-1v-4a1 1 0 0 1 2 0Zm14-17a4 4 0 1 0-4-4 4.004 4.004 0 0 0 4 4Zm0-6a2 2 0 1 1-2 2 2.002 2.002 0 0 1 2-2Zm0 18a4 4 0 1 0 4 4 4.004 4.004 0 0 0-4-4Zm0 6a2 2 0 1 1 2-2 2.002 2.002 0 0 1-2 2ZM26 44a1 1 0 0 1 1-1h2a1 1 0 0 1 0 2h-2a1 1 0 0 1-1-1Zm-3-1a1 1 0 0 1 0 2h-2a1 1 0 0 1 0-2Zm-6 0a1 1 0 0 1 0 2h-2a1 1 0 0 1 0-2Zm-6 0a1 1 0 0 1 0 2H9a1 1 0 0 1 0-2Z"
      data-name="27-Cutting"
      fill="#000000"
      opacity="1"
      data-original="#000000"
      class=""
    ></path>
  </g>
</svg>
