<svg xmlns="http://www.w3.org/2000/svg" version="1.1" xmlns:xlink="http://www.w3.org/1999/xlink" width="512" height="512" x="0" y="0" viewBox="0 0 512 512" style="enable-background:new 0 0 512 512" xml:space="preserve" class=""><g><path d="m506.813 95.68-172-94.446a10.005 10.005 0 0 0-9.625 0l-64.68 35.516a10.023 10.023 0 0 0-3.98 2.184L153.187 95.68a10.003 10.003 0 0 0-5.188 8.765v20.446H32.625c-5.523 0-10 4.48-10 10 0 5.523 4.477 10 10 10H148v36H90.668c-5.523 0-10 4.48-10 10 0 5.523 4.477 10 10 10H148v52H64c-5.523 0-10 4.48-10 10 0 5.523 4.477 10 10 10h84v20.449c0 3.648 1.988 7.008 5.188 8.765l172 94.446c1.5.824 3.156 1.234 4.812 1.234s3.313-.41 4.813-1.234l172-94.446A10.003 10.003 0 0 0 512 293.34v-44.781c0-5.52-4.477-10-10-10s-10 4.48-10 10v38.863l-152 83.465V204.809l48.34-26.543v42.125a9.996 9.996 0 0 0 10 10c1.656 0 3.316-.41 4.82-1.239l36.86-20.285a10.001 10.001 0 0 0 5.175-8.762v-53.058l46.805-25.7v47.212c0 5.523 4.477 10 10 10s10-4.477 10-10v-64.114c0-3.648-1.988-7.008-5.188-8.765zM320 370.887l-152-83.465V121.348l152 83.46zm10-183.403-151.223-83.039 47.528-26.097 151.226 83.039zm68.309-37.507-151.227-83.04 16.395-9 151.222 83.04zm26.886 44.218-16.855 9.278v-36.188l16.855-9.258zm10.282-64.629L284.254 46.527 330 21.41l151.223 83.035zm0 0" fill="#000000" opacity="1" data-original="#000000" class=""></path><path d="M502 198.563a10.03 10.03 0 0 0-7.07 2.93 10.059 10.059 0 0 0-2.93 7.07c0 2.628 1.07 5.21 2.93 7.07 1.86 1.86 4.441 2.93 7.07 2.93s5.21-1.07 7.07-2.93a10.08 10.08 0 0 0 2.93-7.07c0-2.641-1.07-5.211-2.93-7.07a10.03 10.03 0 0 0-7.07-2.93zM24.332 252.89H10c-5.523 0-10 4.481-10 10 0 5.524 4.477 10 10 10h14.332c5.523 0 10-4.476 10-10 0-5.519-4.477-10-10-10zM60.672 190.89c0-2.628-1.07-5.206-2.934-7.066a10.058 10.058 0 0 0-7.066-2.933 10.06 10.06 0 0 0-7.07 2.933 10.02 10.02 0 0 0-2.93 7.067c0 2.632 1.058 5.21 2.93 7.07a10.073 10.073 0 0 0 7.07 2.93c2.629 0 5.207-1.067 7.066-2.93a10.06 10.06 0 0 0 2.934-7.07zm0 0" fill="#000000" opacity="1" data-original="#000000" class=""></path></g></svg>