<svg
  xmlns="http://www.w3.org/2000/svg"
  version="1.1"
  xmlns:xlink="http://www.w3.org/1999/xlink"
  width="512"
  height="512"
  x="0"
  y="0"
  viewBox="0 0 64 64"
  style="enable-background: new 0 0 512 512"
  xml:space="preserve"
  class=""
>
  <g>
    <path
      d="M1.118 31.537a1 1 0 0 0 .05 1.026l4 5.993A1 1 0 0 0 6 39a1 1 0 0 0 .831-.445l4-6A1 1 0 0 0 10 31H7.025A25.019 25.019 0 0 1 38.731 7.916l.538-1.926A27.016 27.016 0 0 0 5.025 31.005L2 31.008a1 1 0 0 0-.882.529ZM8.131 33 6 36.2l-2.13-3.194ZM58.828 25.452a1 1 0 0 0-.828-.444 1 1 0 0 0-.831.445l-4 6A1 1 0 0 0 54 33.008h2.973A25.018 25.018 0 0 1 25.11 56.039l-.55 1.922A27.014 27.014 0 0 0 58.975 33H62a1 1 0 0 0 .831-1.556Zm-2.959 5.554L58 27.81 60.13 31Z"
      fill="#000000"
      opacity="1"
      data-original="#000000"
      class=""
    ></path>
    <path
      d="M35.15 46.439a7.988 7.988 0 1 0 11.289-11.288A16.058 16.058 0 1 0 35.15 46.439ZM33.04 41.8c-.346-.018-.693-.027-1.04-.036v-3.876q.8.017 1.608.061A7.951 7.951 0 0 0 33 41c0 .269.014.536.04.8ZM32 35.886V32h5.8q-.032.868-.114 1.727a8.043 8.043 0 0 0-2.938 2.3q-1.383-.111-2.748-.141ZM47 41a6 6 0 1 1-6-6 6.006 6.006 0 0 1 6 6Zm-2.313-7.092a7.774 7.774 0 0 0-4.938-.8c.026-.369.04-.738.052-1.108h5.161a13.875 13.875 0 0 1-.275 1.908Zm-1.442-9.679A13.885 13.885 0 0 1 44.949 30H39.8a28.009 28.009 0 0 0-.534-4.645 24.624 24.624 0 0 0 3.979-1.126Zm-4.455-4.854a14.1 14.1 0 0 1 3.329 3.152 24.1 24.1 0 0 1-3.336.886 19.405 19.405 0 0 0-1.483-3.706c.52-.099 1.013-.207 1.49-.332ZM37.8 30H32v-3.888a43.9 43.9 0 0 0 5.3-.419A25.942 25.942 0 0 1 37.8 30ZM32 24.112V20.23a36.7 36.7 0 0 0 3.154-.209 15.962 15.962 0 0 1 1.646 3.723 42.012 42.012 0 0 1-4.8.368ZM31 17a13.9 13.9 0 0 1 4.927.912c-.13.02-.249.046-.381.065a36.727 36.727 0 0 1-9.085 0c-.135-.019-.255-.046-.388-.066A13.905 13.905 0 0 1 31 17Zm-4.153 3.022c1.018.113 2.072.181 3.153.208v3.882a41.994 41.994 0 0 1-4.8-.368 15.726 15.726 0 0 1 1.647-3.722ZM30 26.112V30h-5.8a25.806 25.806 0 0 1 .5-4.306 43.866 43.866 0 0 0 5.3.418Zm-6.79-6.737c.477.121.97.233 1.491.332a19.134 19.134 0 0 0-1.482 3.706 24.092 24.092 0 0 1-3.338-.886 14.1 14.1 0 0 1 3.329-3.152Zm-4.455 4.854a24.534 24.534 0 0 0 3.98 1.126A27.886 27.886 0 0 0 22.2 30h-5.149a13.885 13.885 0 0 1 1.704-5.771Zm-.007 13.531a13.887 13.887 0 0 1-1.7-5.76H22.2a28.227 28.227 0 0 0 .523 4.635 24.229 24.229 0 0 0-3.975 1.125Zm4.458 4.863a14.08 14.08 0 0 1-3.323-3.148 23.289 23.289 0 0 1 3.328-.893 18.788 18.788 0 0 0 1.49 3.71q-.786.147-1.495.331ZM24.2 32H30v3.883a43.9 43.9 0 0 0-5.291.413A26.236 26.236 0 0 1 24.2 32Zm5.8 5.888v3.873c-1.083.028-2.144.1-3.158.211a15.63 15.63 0 0 1-1.635-3.72A42.613 42.613 0 0 1 30 37.888Zm3.528 5.946a7.85 7.85 0 0 0 .38.853 13.73 13.73 0 0 1-7.833-.6 36.073 36.073 0 0 1 7.453-.253ZM62 1H46a1 1 0 0 0-1 1v16a1 1 0 0 0 1 1h16a1 1 0 0 0 1-1V2a1 1 0 0 0-1-1Zm-9 2h2v3.483l-.606-.259a1 1 0 0 0-.788 0L53 6.483Zm8 14H47V3h4v5a1 1 0 0 0 1.394.919L54 8.23l1.606.689A.982.982 0 0 0 56 9a1 1 0 0 0 1-1V3h4ZM18 45H2a1 1 0 0 0-1 1v16a1 1 0 0 0 1 1h16a1 1 0 0 0 1-1V46a1 1 0 0 0-1-1Zm-9 2h2v3.483l-.606-.259a1 1 0 0 0-.788 0L9 50.483Zm8 14H3V47h4v5a1 1 0 0 0 1.394.919L10 52.23l1.606.689A.982.982 0 0 0 12 53a1 1 0 0 0 1-1v-5h4Z"
      fill="#000000"
      opacity="1"
      data-original="#000000"
      class=""
    ></path>
    <path
      d="m38.171 40.646-1.414 1.415 2.122 2.121a1 1 0 0 0 1.414 0l4.95-4.95-1.414-1.414-4.243 4.243Z"
      fill="#000000"
      opacity="1"
      data-original="#000000"
      class=""
    ></path>
  </g>
</svg>
