<svg
  xmlns="http://www.w3.org/2000/svg"
  version="1.1"
  xmlns:xlink="http://www.w3.org/1999/xlink"
  width="512"
  height="512"
  x="0"
  y="0"
  viewBox="0 0 8.467 8.467"
  style="enable-background: new 0 0 512 512"
  xml:space="preserve"
  class=""
>
  <g>
    <path
      fill-rule="evenodd"
      d="M2.12.794a.801.801 0 0 0-.796.797v.263h-.263a.801.801 0 0 0-.797.797v4.238c0 .436.36.797.797.797H7.42a.8.8 0 0 0 .794-.797V4.241a.265.265 0 1 0-.528 0v2.648a.26.26 0 0 1-.266.267H1.06a.26.26 0 0 1-.266-.267V2.651a.26.26 0 0 1 .267-.267H7.42a.26.26 0 0 1 .266.267v.53a.265.265 0 1 0 .528 0v-.53a.8.8 0 0 0-.794-.797h-.264v-.263a.802.802 0 0 0-.797-.797zm0 .53h4.24c.15 0 .266.115.266.267v.263H1.854v-.263c0-.152.115-.267.267-.267zm2.115 1.587a.265.265 0 0 0-.26.27v2.54l-.608-.608a.265.265 0 0 0-.215-.08.265.265 0 0 0-.159.454l1.06 1.06a.265.265 0 0 0 .374 0l1.06-1.06a.265.265 0 1 0-.373-.374l-.609.607V3.18a.265.265 0 0 0-.27-.27z"
      paint-order="stroke fill markers"
      fill="#000000"
      opacity="1"
      data-original="#000000"
      class=""
    ></path>
  </g>
</svg>
