<svg xmlns="http://www.w3.org/2000/svg" version="1.1" xmlns:xlink="http://www.w3.org/1999/xlink" width="512" height="512" x="0" y="0" viewBox="0 0 512.15 512" style="enable-background:new 0 0 512 512" xml:space="preserve" class=""><g><path d="M355.52 512.113a25.725 25.725 0 0 0 24.746-18.941l23.597-88.102 89.367-23.89c13.618-3.703 21.68-17.711 18.051-31.344l-46.336-172.7 3.668-13.652c3.317-12.574-3.324-25.636-15.437-30.37L432.313 55.23c-3.735-13.605-17.708-21.68-31.36-18.125L248.547 77.988 120.75 43.727a25.1 25.1 0 0 0-15.852.855L72.973 12.711A42.663 42.663 0 0 0 1.44 31.754a42.662 42.662 0 0 0 11.184 41.285l58.191 58.191L1.098 391.496c-3.649 13.649 4.422 27.676 18.054 31.387l329.723 88.344c2.164.59 4.398.89 6.645.886zm139.25-157.867a8.538 8.538 0 0 1-5.977 10.43l-79.82 21.332 47.113-175.88zM405.32 53.61a8.529 8.529 0 0 1 6.52.844 8.523 8.523 0 0 1 3.984 5.223l18.203 67.996-152.515-40.86zM258.547 258.664l-43.082-14.36 28.722-28.75 14.36 43.079zm-34.73-46.828-72.407-72.414a8.533 8.533 0 0 0-12.07.004c-3.332 3.332-3.328 8.738.008 12.07l72.41 72.395-12.063 12.078L79.008 115.28l12.066-12.066 24.13 24.14c2.16 2.157 5.3 3 8.25 2.207a8.538 8.538 0 0 0 3.828-14.281l-24.134-24.133 12.067-12.074 120.668 120.688zM54.866 91.148l36.207-36.207 12.067 12.067-36.2 36.207zM17.2 42.875a25.605 25.605 0 0 1 15.805-23.656 25.604 25.604 0 0 1 27.902 5.554l18.102 18.102L42.8 79.082l-18.11-18.11A25.428 25.428 0 0 1 17.2 42.876zm.395 353.102L84.766 145.18l108.886 108.886a8.395 8.395 0 0 0 3.141 1.938c.066 0 .117.094.195.117l56.211 18.774c1.754.578 3.594.863 5.442.855a16.895 16.895 0 0 0 9.062-2.672l98.133 26.352a8.526 8.526 0 0 0 10.676-7.125 8.528 8.528 0 0 0-6.254-9.352l-94.719-25.43a17.66 17.66 0 0 0-.785-4.27L255.98 197.04c0-.078-.093-.129-.128-.207a8.464 8.464 0 0 0-1.93-3.121L122.032 61.766l324.019 86.793a8.532 8.532 0 0 1 5.191 3.98 8.547 8.547 0 0 1 .852 6.484l-88.305 329.684a8.526 8.526 0 0 1-3.98 5.195 8.542 8.542 0 0 1-6.489.848L23.633 406.437a8.562 8.562 0 0 1-5.192-3.976 8.533 8.533 0 0 1-.847-6.484zm0 0" fill="#000000" opacity="1" data-original="#000000"></path><path d="M394.578 200.785a8.539 8.539 0 0 0 8.457-7.426 8.537 8.537 0 0 0-6.254-9.351l-121.37-32.52a8.524 8.524 0 0 0-8.411 2.09 8.532 8.532 0 0 0 3.988 14.387l121.38 32.527a8.466 8.466 0 0 0 2.21.293zM381.316 250.234a8.534 8.534 0 0 0 2.203-16.777L301 211.383a8.53 8.53 0 0 0-8.344 2.144 8.531 8.531 0 0 0 3.942 14.34l82.52 22.078c.714.192 1.456.29 2.198.29zM118.004 268.324l-24.746-6.629a8.532 8.532 0 1 0-4.43 16.477l24.746 6.64a8.69 8.69 0 0 0 2.219.29 8.53 8.53 0 0 0 8.465-7.418 8.539 8.539 0 0 0-6.254-9.36zM363.063 342.813c1.218-4.551-1.485-9.223-6.032-10.446l-189.586-50.789a8.533 8.533 0 0 0-4.41 16.441l189.574 50.793c.723.2 1.465.297 2.211.297a8.53 8.53 0 0 0 8.243-6.296zM104.742 317.777l-24.746-6.632a8.536 8.536 0 0 0-10.41 6.046 8.536 8.536 0 0 0 6 10.442l24.746 6.62c.719.2 1.461.302 2.211.298a8.53 8.53 0 0 0 8.46-7.418 8.524 8.524 0 0 0-6.253-9.356zM343.777 381.828l-189.574-50.8a8.542 8.542 0 0 0-8.41 2.09 8.538 8.538 0 0 0-2.246 8.37 8.546 8.546 0 0 0 6.234 6.02l189.578 50.797c.723.199 1.47.3 2.22.3a8.534 8.534 0 0 0 2.2-16.777zm0 0" fill="#000000" opacity="1" data-original="#000000"></path></g></svg>