<svg
  xmlns="http://www.w3.org/2000/svg"
  version="1.1"
  xmlns:xlink="http://www.w3.org/1999/xlink"
  width="512"
  height="512"
  x="0"
  y="0"
  viewBox="0 0 512 512"
  style="enable-background: new 0 0 512 512"
  xml:space="preserve"
>
  <g>
    <path
      d="M511.496 365.717c-2.914-29.978-18.264-57.261-43.222-76.824-9.626-7.545-20.558-13.851-32.613-18.873V134.854a7.998 7.998 0 0 0-4-6.928L221.831 6.781a8 8 0 0 0-8 0L4.001 127.926a7.998 7.998 0 0 0-4 6.928v242.291a7.998 7.998 0 0 0 4 6.928l209.83 121.145a8 8 0 0 0 8 0l209.83-121.145a7.986 7.986 0 0 0 3.493-4.168c5.458 7.042 9.238 14.936 11.023 23.256 6.598 30.738-13.282 60.623-51.881 77.992a8.001 8.001 0 0 0 3.277 15.296c.511 0 1.028-.049 1.546-.151 37.033-7.267 67.343-24.495 87.652-49.822 18.736-23.361 27.516-52.042 24.725-80.759zM217.831 246.762l-58.49-33.769 193.83-111.908 58.49 33.769zM98.49 177.861 292.32 65.953l44.851 25.895-193.83 111.908zm36.852 39.751-.001 76.934-44.85-25.894-.001-76.935zm82.489-194.665 58.489 33.769L82.49 168.623l-58.489-33.769zM16.001 148.711 74.49 182.48l.001 90.791a7.998 7.998 0 0 0 4 6.928l60.85 35.131a8 8 0 0 0 12-6.928l.001-81.552 58.489 33.769v223.816L16.001 372.527zm209.83 335.723V260.619l193.83-111.908v115.597c-16.639-5.019-35.004-7.89-54.733-8.498v-25.873a7.999 7.999 0 0 0-13.135-6.135l-92.489 77.41a8.002 8.002 0 0 0 .403 12.585l92.489 67.855a7.999 7.999 0 0 0 12.733-6.45v-26.896c21.185 1.138 39.795 6.837 54.196 16.654.183.125.356.257.537.383v7.184zm221.106-23.515a86.164 86.164 0 0 0 5.423-7.957c10.064-16.727 13.336-35.109 9.462-53.158-4.07-18.963-16.033-36.033-33.686-48.066-18.855-12.852-43.479-19.646-71.208-19.646a8 8 0 0 0-8 8v19.317l-71.53-52.479 71.53-59.867v16.623a8 8 0 0 0 8 8c95.478 0 134.358 51.486 138.644 95.576 3.139 32.311-11.576 69.954-48.635 93.657z"
      fill="#000000"
      opacity="1"
      data-original="#000000"
    ></path>
  </g>
</svg>
