<svg xmlns="http://www.w3.org/2000/svg" version="1.1" xmlns:xlink="http://www.w3.org/1999/xlink" width="512" height="512" x="0" y="0" viewBox="0 0 512 512" style="enable-background:new 0 0 512 512" xml:space="preserve" class=""><g><path d="M307.495 376.002a8.003 8.003 0 0 0-8 0l-41.497 23.958a7.998 7.998 0 0 0-4 6.928v26.758a7.998 7.998 0 0 0 12 6.928l41.497-23.958a7.998 7.998 0 0 0 4-6.928V382.93a8 8 0 0 0-4-6.928zm-12 29.068-25.497 14.72v-8.283l25.497-14.72zm146.35-115.57V136a7.998 7.998 0 0 0-4-6.928l-207.846-120a8 8 0 0 0-8 0l-207.847 120c-2.476 1.429-4 4.07-4 6.928v240a7.998 7.998 0 0 0 4 6.928l207.847 120a8 8 0 0 0 8 0l118.145-68.21c16.239 17.194 39.234 27.943 64.695 27.943 49.08 0 89.009-39.929 89.009-89.009 0-38.928-25.122-72.095-60.003-84.152zM417.844 136l-57.785 33.362L168.213 58.6l57.786-33.363zM225.999 246.762 34.153 136l57.785-33.362L283.784 213.4zm73.785-42.6L107.938 93.4l44.275-25.562L344.06 178.6zm8 13.857 44.275-25.563v76.033l-44.275 25.562zM26.152 149.856l191.847 110.763v221.525L26.152 371.381zm207.847 332.288V260.619l57.785-33.362v80.65a7.998 7.998 0 0 0 12 6.928l60.275-34.799a7.998 7.998 0 0 0 4-6.928v-89.889l57.785-33.362v135.74a89.411 89.411 0 0 0-13.006-.953c-49.08 0-89.009 39.929-89.009 89.009a88.489 88.489 0 0 0 14.319 48.361zm178.84-35.483c-40.257 0-73.009-32.751-73.009-73.009s32.752-73.009 73.009-73.009 73.009 32.751 73.009 73.009-32.752 73.009-73.009 73.009zm51.357-111.372c-3.793-3.772-8.838-5.856-14.18-5.818a19.834 19.834 0 0 0-14.111 5.915l-33.734 34.07-12.415-12.416c-7.806-7.806-20.504-7.803-28.308 0-7.803 7.804-7.803 20.501 0 28.305l26.623 26.623c3.902 3.902 9.028 5.853 14.153 5.853 5.126 0 10.252-1.951 14.154-5.853 10.105-10.106 20.297-20.443 30.152-30.44 5.914-5.999 11.829-11.998 17.758-17.982 7.753-7.822 7.711-20.499-.092-28.257zm-11.272 16.997c-5.938 5.994-11.862 12.002-17.786 18.01-9.836 9.977-20.008 20.293-30.073 30.359a4.02 4.02 0 0 1-5.679 0l-26.623-26.623a4.021 4.021 0 0 1 0-5.679 4 4 0 0 1 2.839-1.174c1.029 0 2.058.392 2.84 1.174l18.101 18.101a8.004 8.004 0 0 0 5.657 2.343h.02a8 8 0 0 0 5.665-2.371l39.391-39.783a3.946 3.946 0 0 1 2.803-1.172 3.895 3.895 0 0 1 2.837 1.164c1.556 1.549 1.561 4.083.008 5.651z" fill="#000000" opacity="1" data-original="#000000" class=""></path></g></svg>