<svg
  xmlns="http://www.w3.org/2000/svg"
  version="1.1"
  xmlns:xlink="http://www.w3.org/1999/xlink"
  width="512"
  height="512"
  x="0"
  y="0"
  viewBox="0 0 100 100"
  style="enable-background: new 0 0 512 512"
  xml:space="preserve"
  class=""
>
  <g>
    <path
      d="M72.384 41.279a6.05 6.05 0 1 0-6.051-6.05 6.057 6.057 0 0 0 6.051 6.05zm0-9.845a3.795 3.795 0 1 1-3.8 3.795 3.8 3.8 0 0 1 3.8-3.795zm17.96 2.795h-.964V33.8a13.772 13.772 0 0 0-13.762-13.75h-8.613v-.26a5.37 5.37 0 0 0-5.364-5.364h-7.386a5.37 5.37 0 0 0-5.364 5.364v.26h-30A13.771 13.771 0 0 0 5.132 33.8v18.69a6 6 0 0 0 5.988 5.99h1.286v7.13a1 1 0 0 0 1 1h1.884v2.525a1 1 0 0 0 2 0V66.61h1.884a1 1 0 0 0 1-1v-7.134h2.419a6.023 6.023 0 0 0 5.432-3.464l2.239-4.812a7.5 7.5 0 0 1 6.775-4.311h12.818a7.481 7.481 0 0 1 7.474 7.473V67.8h-29.34a5.124 5.124 0 0 0-5.017 4.117H9.9a4.774 4.774 0 0 0 0 9.548h2.5v3.113a1 1 0 0 0 1 1h12.992a1 1 0 0 0 1-1v-3.113h37.5v3.113a1 1 0 0 0 1 1h12.984a1 1 0 0 0 1-1v-3.113h.956a8.558 8.558 0 0 0 8.548-8.546V55.2h.964a4.53 4.53 0 0 0 4.525-4.525V38.754a4.53 4.53 0 0 0-4.525-4.525zM18.174 64.61h-3.768v-6.134h3.768zm1.507-24.553a9.71 9.71 0 0 1-9.7 9.7H7.132V33.8a11.768 11.768 0 0 1 11.761-11.75h.788zm14.844-14.011h-8.133a1 1 0 0 1 0-2h8.133a1 1 0 0 1 0 2zm37.859 1.133a8.05 8.05 0 1 1-8.051 8.05 8.059 8.059 0 0 1 8.051-8.05zM76.908 54.2a4.525 4.525 0 1 1-4.524-4.525 4.529 4.529 0 0 1 4.524 4.525zM50.891 19.786a3.367 3.367 0 0 1 3.364-3.364h7.386a3.368 3.368 0 0 1 3.364 3.364v.259H50.891zm-9.981 6.26a1 1 0 0 1 0-2h18.1a1 1 0 0 1 0 2zM27.991 69.8h28.957v2.117H25.037a3.125 3.125 0 0 1 2.954-2.117zm52.841 9.665H9.9a2.774 2.774 0 0 1 0-5.548h77.4a6.558 6.558 0 0 1-6.468 5.548z"
      data-name="49"
      fill="#FFFFFF"
      opacity="1"
      data-original="#FFFFFF"
      class=""
    ></path>
  </g>
</svg>
