<svg xmlns="http://www.w3.org/2000/svg" version="1.1" xmlns:xlink="http://www.w3.org/1999/xlink" width="512" height="512" x="0" y="0" viewBox="0 0 511.999 511.999" style="enable-background:new 0 0 512 512" xml:space="preserve" class=""><g><path d="M395.273 265.367c-5.169-5.17-12.042-8.017-19.353-8.017-7.311 0-14.184 2.847-19.352 8.016-5.169 5.17-8.017 12.043-8.017 19.353s2.847 14.183 8.017 19.353c5.335 5.335 12.344 8.003 19.352 8.003 7.009 0 14.017-2.668 19.352-8.003 5.169-5.17 8.017-12.043 8.017-19.353s-2.847-14.183-8.016-19.352zm-10.305 28.399c-4.99 4.991-13.107 4.991-18.096 0-2.417-2.417-3.748-5.63-3.748-9.047s1.331-6.631 3.749-9.048c2.417-2.417 5.63-3.748 9.047-3.748s6.631 1.331 9.048 3.749c2.417 2.417 3.748 5.63 3.748 9.047s-1.331 6.631-3.748 9.047zM395.272 337.29c-10.671-10.671-28.034-10.672-38.705 0-5.169 5.17-8.017 12.043-8.017 19.353.001 7.31 2.848 14.184 8.018 19.354 5.335 5.335 12.344 8.003 19.352 8.003 7.009 0 14.017-2.668 19.352-8.003v-.001c5.169-5.169 8.017-12.043 8.017-19.353s-2.847-14.183-8.017-19.353zm-10.304 28.401c-4.988 4.991-13.106 4.989-18.095.001a12.715 12.715 0 0 1-3.749-9.049 12.71 12.71 0 0 1 3.748-9.047 12.755 12.755 0 0 1 9.048-3.742c3.277 0 6.554 1.247 9.048 3.742a12.711 12.711 0 0 1 3.748 9.047 12.71 12.71 0 0 1-3.748 9.048z" fill="#000000" opacity="1" data-original="#000000" class=""></path><path d="M484.582 145.753c-15.118 0-27.418 12.3-27.418 27.417v34.816h-14.656c-.975-17.309-8.765-33.656-21.72-45.311-13.706-12.333-32.024-18.355-50.362-16.604v-8.702h.234c8.108 0 14.705-6.597 14.705-14.705v-50.48c0-8.108-6.597-14.704-14.705-14.704h-15.04c-8.108 0-14.705 6.596-14.705 14.704v50.481c0 8.108 6.597 14.705 14.705 14.705h.233v10.021l-23.607 2.15c-4.008.364-6.961 3.909-6.596 7.917s3.903 6.969 7.917 6.596l30.3-2.759.029-.003 7.29-.664.106-.01a51.431 51.431 0 0 1 39.749 12.891 51.42 51.42 0 0 1 17.003 38.171v190.959H320.012l12.997-73.023c2.776-15.32-.987-31.253-10.323-43.713-9.336-12.459-23.57-20.546-39.053-22.184-.05-.006-.101-.01-.151-.014L92.213 247.472l3.211-61.732 193.06-17.581a7.285 7.285 0 0 0 6.596-7.917c-.365-4.009-3.911-6.98-7.917-6.596l-190.974 17.39.072-1.393a15.18 15.18 0 0 0-4.134-11.194 15.183 15.183 0 0 0-10.964-4.71h-.074v-4.921c0-9.684-7.879-17.563-17.563-17.563-9.685 0-17.564 7.879-17.564 17.563v4.921h-1.95a15.177 15.177 0 0 0-10.964 4.71 15.18 15.18 0 0 0-4.134 11.194l2.94 56.54c.209 4.019 3.631 7.086 7.655 6.898a7.287 7.287 0 0 0 6.898-7.656l-2.94-56.54a.52.52 0 0 1 .149-.404c.161-.17.337-.17.395-.17h37.15a.52.52 0 0 1 .396.17.52.52 0 0 1 .149.404l-5.923 113.892a.546.546 0 0 1-.545.518H49.935a.546.546 0 0 1-.545-.518l-.613-11.799c-.209-4.019-3.649-7.098-7.655-6.898a7.287 7.287 0 0 0-6.898 7.656l.613 11.799c.246 4.743 2.666 8.866 6.254 11.46v17.647c0 9.296 5.933 17.231 14.21 20.223v38.054c0 4.025 3.262 7.287 7.287 7.287s7.287-3.262 7.287-7.287v-38.053c8.277-2.992 14.21-10.926 14.21-20.223v-17.647c3.588-2.594 6.007-6.718 6.253-11.46l1.118-21.503 190.716 16.185c11.606 1.248 21.85 7.078 28.852 16.423 7.017 9.364 9.732 20.862 7.642 32.398l-13.455 75.599H22.66C10.165 402.639 0 412.803 0 425.298v6.563c0 12.494 10.165 22.659 22.66 22.659h439.303c12.495 0 22.66-10.165 22.66-22.659v-6.563c0-12.494-10.165-22.659-22.66-22.659h-19.346V249.854h14.546v34.816c0 15.119 12.3 27.418 27.418 27.418 15.119 0 27.418-12.3 27.418-27.418V173.171c.001-15.118-12.299-27.418-27.417-27.418zM355.62 122.797a.132.132 0 0 1-.132-.132V72.184c0-.072.059-.131.132-.131h15.04c.073 0 .132.059.132.131v50.481a.132.132 0 0 1-.132.132h-15.04zM66.516 153.74h-5.981v-4.921a2.994 2.994 0 0 1 2.991-2.99 2.994 2.994 0 0 1 2.99 2.99v4.921zm2.995 158.903a6.93 6.93 0 0 1-6.924 6.923 6.93 6.93 0 0 1-6.923-6.923V297.87h13.847v14.773zm392.452 104.569c4.459 0 8.087 3.627 8.087 8.086v6.563c0 4.459-3.628 8.086-8.087 8.086H22.66c-4.459 0-8.087-3.627-8.087-8.086v-6.563c0-4.459 3.628-8.086 8.087-8.086h439.303zm-4.799-181.931h-14.546V222.56h14.546v12.721zm40.263 49.389c0 7.083-5.762 12.845-12.845 12.845s-12.845-5.763-12.845-12.845V173.171c0-7.083 5.762-12.844 12.845-12.844s12.845 5.762 12.845 12.844V284.67z" fill="#000000" opacity="1" data-original="#000000" class=""></path></g></svg>