<svg
  xmlns="http://www.w3.org/2000/svg"
  version="1.1"
  xmlns:xlink="http://www.w3.org/1999/xlink"
  width="512"
  height="512"
  x="0"
  y="0"
  viewBox="0 0 512 512"
  style="enable-background: new 0 0 512 512"
  xml:space="preserve"
  class=""
>
  <g>
    <linearGradient id="a" x1="-17.749" x2="439.087" y1="28.908" y2="485.743" gradientUnits="userSpaceOnUse">
      <stop offset="0"></stop>
      <stop offset="1"></stop>
    </linearGradient>
    <path
      d="M491.241 92.297h-63.56v-5.253a4 4 0 0 0-4-4h-19.609c-1.867-9.441-10.212-16.583-20.194-16.583s-18.327 7.142-20.194 16.583h-7.763V12.815a4 4 0 0 0-4-4h-26.476a4 4 0 0 0-4 4v79.481h-44.929c-11.446 0-20.759 9.313-20.759 20.759v10.574h-70.402v-87.61a4 4 0 0 0-4-4H89.744a4 4 0 0 0-4 4v87.611H34.477V12.815a4 4 0 0 0-4-4H4a4 4 0 0 0-4 4v486.369a4 4 0 0 0 4 4h26.477a4 4 0 0 0 4-4V467.38h286.969v31.805a4 4 0 0 0 4 4h26.476a4 4 0 0 0 4-4v-74.183h135.319c11.446 0 20.759-9.313 20.759-20.76V113.056c0-11.447-9.312-20.759-20.759-20.759zM504 404.242c0 7.036-5.724 12.76-12.759 12.76H276.517c-7.035 0-12.759-5.724-12.759-12.76V113.056c0-7.035 5.724-12.759 12.759-12.759h63.56v12.425H277.04a4 4 0 0 0-4 4v283.854a4 4 0 0 0 4 4h213.677a4 4 0 0 0 4-4V116.722a4 4 0 0 0-4-4h-63.035v-12.425h63.56c7.035 0 12.759 5.724 12.759 12.759v291.186zm-174.554 90.943v-70.183h18.476v70.183zM8 495.185V16.815h18.477v478.369H8zM143.466 40.019V56.12l-5.891-3.457a4.007 4.007 0 0 0-4.049 0l-5.892 3.457V40.019zm-23.831 0v23.086a3.999 3.999 0 0 0 6.024 3.45l9.892-5.805 9.891 5.805a4.002 4.002 0 0 0 4.012.021 3.997 3.997 0 0 0 2.012-3.471V40.019h25.891v83.611H93.744V40.019zm136.123 91.611v18.479H34.477V131.63zm21.21 293.372h44.478v7.901h-44.478zm-8 7.901h-83.611v-83.611h25.89v23.086a4 4 0 0 0 6.025 3.45l9.892-5.806 9.889 5.806a3.997 3.997 0 0 0 4.012.023 4 4 0 0 0 2.013-3.472v-23.086h12.681v54.95c0 8.781 5.489 16.289 13.209 19.317zm-33.891-83.611v16.099l-5.889-3.457a4 4 0 0 0-4.05 0l-5.892 3.458v-16.1zm-91.611 0v16.1l-5.89-3.458a4 4 0 0 0-4.05 0l-5.891 3.458v-16.1zm-49.722 0h25.891v23.086a4 4 0 0 0 6.025 3.45l9.891-5.806 9.89 5.806a3.997 3.997 0 0 0 4.012.023 4 4 0 0 0 2.013-3.472v-23.086h25.891v83.611H93.744zm87.612-8H89.744a4 4 0 0 0-4 4v87.611H34.477V312.744h221.282v28.548zM34.477 304.744v-18.477h221.282v18.477zm200.6-110.088v16.099l-5.89-3.457a4.007 4.007 0 0 0-4.049 0l-5.892 3.458v-16.1zm-91.611 0v16.099l-5.891-3.457a4.007 4.007 0 0 0-4.049 0l-5.892 3.457v-16.099zm-21.819 26.555a4 4 0 0 0 4.012-.021l9.892-5.805 9.891 5.805a4.002 4.002 0 0 0 4.012.021 3.997 3.997 0 0 0 2.012-3.471v-23.084h25.891v83.611H93.744v-83.611h25.891v23.084c0 1.435.767 2.759 2.012 3.471zm63.709 57.057v-83.611h25.89v23.084a3.999 3.999 0 0 0 6.024 3.45l9.892-5.805 9.89 5.805a3.996 3.996 0 0 0 4.012.021 3.997 3.997 0 0 0 2.012-3.471v-23.084h12.681v83.611zm-4-91.612H89.744a4 4 0 0 0-4 4v87.611H34.477V158.108h221.282v28.548zM34.477 440.903h286.969v18.477H34.477zM347.922 16.815v66.229h-3.845a4 4 0 0 0-4 4v5.253h-10.631V16.815zm23.373 70.229c0-6.938 5.645-12.583 12.584-12.583s12.584 5.645 12.584 12.583a4 4 0 0 0 4 4h19.219v30.407h-71.605V91.044h19.218a4 4 0 0 0 4-4zm-90.255 33.678h59.037v4.729a4 4 0 0 0 4 4h79.605a4 4 0 0 0 4-4v-4.729h59.035v275.854H281.04z"
      fill="#000000"
      opacity="1"
      data-original="#000000"
    ></path>
    <path
      d="M473.752 371.733a4 4 0 0 0 0-8H294.007a4 4 0 0 0 0 8zM305.729 346.727h21.882a4 4 0 0 0 4-4v-50.539a4 4 0 0 0-4-4h-21.882a4 4 0 0 0-4 4v50.539a4 4 0 0 0 4 4zm4-50.539h13.882v42.539h-13.882zM350.535 269.954a4 4 0 0 0-4 4v68.772a4 4 0 0 0 4 4h21.881a4 4 0 0 0 4-4v-68.772a4 4 0 0 0-4-4zm17.881 68.773h-13.881v-60.772h13.881zM395.342 346.727h21.881a4 4 0 0 0 4-4v-63.043a4 4 0 0 0-4-4h-21.881a4 4 0 0 0-4 4v63.043a4 4 0 0 0 4 4zm4-63.043h13.881v55.043h-13.881zM436.147 239.828v102.898a4 4 0 0 0 4 4h21.882a4 4 0 0 0 4-4V239.828a4 4 0 0 0-4-4h-21.882a4 4 0 0 0-4 4zm21.882 98.899h-13.882v-94.898h13.882zM305.729 175.446h21.882a4 4 0 0 0 4-4v-21.882a4 4 0 0 0-4-4h-21.882a4 4 0 0 0-4 4v21.882a4 4 0 0 0 4 4zm17.882-21.882v13.882h-13.882v-13.882zM327.611 186.202h-21.882a4 4 0 0 0-4 4v21.884a4 4 0 0 0 4 4h21.882a4 4 0 0 0 4-4v-21.884a4 4 0 0 0-4-4zm-4 21.884h-13.882v-13.884h13.882zM301.729 252.723a4 4 0 0 0 4 4h21.882a4 4 0 0 0 4-4v-21.882a4 4 0 0 0-4-4h-21.882a4 4 0 0 0-4 4zm8-17.882h13.882v13.882h-13.882zM346.626 164.506h104.463a4 4 0 0 0 0-8H346.626a4 4 0 0 0 0 8zM455.089 201.143a4 4 0 0 0-4-4H346.626a4 4 0 0 0 0 8h104.463a4 4 0 0 0 4-4zM410.283 241.782a4 4 0 0 0-4-4h-59.657a4 4 0 0 0 0 8h59.657a4 4 0 0 0 4-4z"
      fill="#000000"
      opacity="1"
      data-original="#000000"
    ></path>
  </g>
</svg>
