<svg width="303" height="301" viewBox="0 0 303 301" fill="none" xmlns="http://www.w3.org/2000/svg">
<path fill-rule="evenodd" clip-rule="evenodd" d="M0 0H97.715C158.16 0 198.016 25.0134 202.5 90.7171C174.518 56.0001 145.694 44.3941 102.858 44.3941H0V0Z" fill="#009035"/>
<path fill-rule="evenodd" clip-rule="evenodd" d="M84.8951 130.723C106.177 128.842 119.073 131.65 129.127 142.313C142.51 156.504 134.849 180.061 112.501 177.414C79.897 173.553 43.0729 181.388 44.3581 214.247V261.214H1.92936V212.316C1.69043 162.695 38.9991 135.978 84.8951 130.723Z" fill="#009035"/>
<path fill-rule="evenodd" clip-rule="evenodd" d="M0.643311 64.3379C27.8549 64.3379 69.6436 62.4993 104.405 63.2729C198.55 65.3677 210.679 123.656 214.651 169.166C218.937 218.251 231.124 224.149 276.779 224.531L298.719 224.717L299.571 265.716L272.313 266C218.318 266.56 169.648 246.335 168.575 182.972C166.86 81.6663 78.3918 111.305 0.643311 111.305V64.3379Z" fill="#F07C00"/>
<path fill-rule="evenodd" clip-rule="evenodd" d="M2.15283 300.291H6.59627V291.768C6.8672 291.768 7.17348 291.768 7.47794 291.768C9.31017 291.768 11.6169 291.09 13.042 289.595C14.2296 288.305 14.9769 286.574 14.9769 284.095C14.9769 282.159 14.3659 280.257 13.0082 279.069C11.5157 277.678 9.4464 277.304 6.79985 277.304C5.10384 277.304 3.40784 277.474 2.15283 277.745V300.291ZM6.59627 281.072C6.8672 280.972 7.27436 280.902 7.68152 280.902C9.75086 280.902 10.5652 282.465 10.5652 284.469C10.5652 286.607 9.54729 288.204 7.30789 288.204C7.03696 288.204 6.79985 288.204 6.59627 288.135V281.072ZM17.657 277.405V300.291H22.1004V290.716H26.7475V300.291H31.1927V277.405H26.7475V286.574H22.1004V277.405H17.657ZM34.9919 277.405V291.531C34.9919 297.268 36.8576 300.561 41.6409 300.561C46.0508 300.561 48.2567 297.371 48.2567 291.497V277.405H43.8114V292.277C43.8114 295.741 42.8962 296.657 41.6074 296.657C40.4532 296.657 39.4353 295.64 39.4353 292.277V277.405H34.9919ZM55.9909 300.291V295.163C55.9909 290.546 55.8227 287.015 55.72 284.706H55.7873C56.2972 286.777 57.3486 289.664 58.0959 291.598L61.5888 300.291H65.6604V277.405H61.7586V282.465C61.7586 286.675 62.0648 290.647 62.1995 293.058H62.1322C61.4876 291.055 60.3688 288.135 59.6892 286.37L56.161 277.405H52.0909V300.291H55.9909ZM82.2852 287.456H76.144V291.09H78.1798V296.623C78.0097 296.692 77.7052 296.726 77.2981 296.726C75.2288 296.726 73.0902 294.756 73.0902 289.256C73.0902 283.28 75.4997 281.209 78.5196 281.209C79.6386 281.209 80.4865 281.413 81.1308 281.717L81.9116 277.881C81.2 277.541 79.9093 277.201 78.1798 277.201C73.3292 277.201 68.5794 280.665 68.4767 288.983C68.4094 292.922 69.4611 296.318 71.4281 298.219C72.9555 299.747 74.9225 300.494 77.5355 300.494C79.1977 300.494 81.3008 300.087 82.2852 299.679V287.456ZM94.9039 300.291V295.163C94.9039 290.546 94.7357 287.015 94.633 284.706H94.7003C95.2099 286.777 96.2616 289.664 97.0086 291.598L100.501 300.291H104.573V277.405H100.672V282.465C100.672 286.675 100.977 290.647 101.112 293.058H101.045C100.401 291.055 99.2818 288.135 98.6019 286.37L95.0736 277.405H91.0039V300.291H94.9039ZM121.198 287.456H115.057V291.09H117.093V296.623C116.923 296.692 116.618 296.726 116.211 296.726C114.141 296.726 112.003 294.756 112.003 289.256C112.003 283.28 114.412 281.209 117.433 281.209C118.551 281.209 119.399 281.413 120.044 281.717L120.824 277.881C120.113 277.541 118.822 277.201 117.093 277.201C112.242 277.201 107.492 280.665 107.39 288.983C107.322 292.922 108.374 296.318 110.341 298.219C111.869 299.747 113.835 300.494 116.448 300.494C118.111 300.494 120.214 300.087 121.198 299.679V287.456ZM124.386 277.405V291.531C124.386 297.268 126.252 300.561 131.035 300.561C135.445 300.561 137.651 297.371 137.651 291.497V277.405H133.206V292.277C133.206 295.741 132.291 296.657 131.002 296.657C129.848 296.657 128.83 295.64 128.83 292.277V277.405H124.386ZM148.473 300.291V291.361L153.596 277.405H148.983L147.625 282.77C147.218 284.4 146.844 286.063 146.573 287.727H146.506C146.166 286.03 145.725 284.332 145.318 282.873L143.759 277.405H139.009L144.029 291.531V300.291H148.473ZM164.791 286.54H159.567V281.276H165.064V277.405H155.124V300.291H165.471V296.419H159.567V290.24H164.791V286.54ZM172.391 300.291V295.163C172.391 290.546 172.223 287.015 172.12 284.706H172.188C172.698 286.777 173.749 289.664 174.496 291.598L177.989 300.291H182.06V277.405H178.159V282.465C178.159 286.675 178.465 290.647 178.6 293.058H178.532C177.888 291.055 176.769 288.135 176.089 286.37L172.561 277.405H168.491V300.291H172.391ZM204.08 287.456H197.938V291.09H199.974V296.623C199.804 296.692 199.5 296.726 199.092 296.726C197.023 296.726 194.885 294.756 194.885 289.256C194.885 283.28 197.294 281.209 200.314 281.209C201.433 281.209 202.281 281.413 202.925 281.717L203.706 277.881C202.994 277.541 201.704 277.201 199.974 277.201C195.123 277.201 190.374 280.665 190.271 288.983C190.204 292.922 191.255 296.318 193.222 298.219C194.75 299.747 196.717 300.494 199.33 300.494C200.992 300.494 203.095 300.087 204.08 299.679V287.456ZM215.138 295.062L216.123 300.291H220.43L215.986 277.405H210.66L205.706 300.291H210.015L211.033 295.062H215.138ZM211.474 291.598L212.322 286.845C212.559 285.521 212.899 283.143 213.136 281.616H213.239C213.442 283.143 213.747 285.419 213.984 286.811L214.731 291.598H211.474ZM222.942 300.291H227.385V291.157H228.03C229.522 291.157 230.235 291.972 230.643 294.825C230.981 297.337 231.491 299.645 231.761 300.291H236.41C236.003 299.442 235.392 296.623 234.952 294.077C234.509 291.632 233.73 290.172 232.169 289.561V289.494C234.509 288.407 235.697 286.2 235.697 283.755C235.697 281.786 235.29 280.257 233.898 279.001C232.406 277.644 230.235 277.304 227.792 277.304C226.096 277.304 224.332 277.474 222.942 277.745V300.291ZM227.385 280.902C227.622 280.801 228.063 280.768 228.437 280.768C230.439 280.835 231.22 282.228 231.22 284.162C231.22 286.166 230.099 287.727 228.166 287.727H227.385V280.902ZM253.271 300.291H257.24L255.85 277.405H251.167L249.369 285.69C248.758 288.576 248.25 291.157 247.91 293.703H247.843C247.436 291.123 246.858 288.576 246.214 285.69L244.382 277.405H239.7L238.037 300.291H241.872L242.245 292.346C242.38 290.071 242.516 287.185 242.583 284.706H242.686C243.026 287.185 243.635 290.036 244.077 291.87L245.977 299.917H249.132L251.1 291.735C251.541 289.968 252.152 287.151 252.559 284.706H252.66C252.592 287.185 252.763 290.105 252.863 292.277L253.271 300.291ZM270.165 286.54H264.94V281.276H270.437V277.405H260.497V300.291H270.844V296.419H264.94V290.24H270.165V286.54ZM277.764 300.291V295.163C277.764 290.546 277.596 287.015 277.493 284.706H277.561C278.071 286.777 279.122 289.664 279.869 291.598L283.362 300.291H287.434V277.405H283.532V282.465C283.532 286.675 283.838 290.647 283.973 293.058H283.905C283.261 291.055 282.142 288.135 281.462 286.37L277.934 277.405H273.864V300.291H277.764ZM293.846 300.291H298.291V281.514H302.362V277.405H289.809V281.514H293.846V300.291Z" fill="#E30016"/>
</svg>
